<?xml version="1.0" encoding="iso-8859-1"?>
<!-- Generator: Adobe Illustrator 19.0.0, SVG Export Plug-In . SVG Version: 6.00 Build 0)  -->
<svg version="1.1" id="Layer_1" xmlns="http://www.w3.org/2000/svg" xmlns:xlink="http://www.w3.org/1999/xlink" x="0px" y="0px"
	 viewBox="0 0 505 505" style="enable-background:new 0 0 505 505;" xml:space="preserve">
<circle style="fill:#90DFAA;" cx="252.5" cy="252.5" r="252.5"/>
<path style="fill:#324A5E;" d="M371.5,426.7h-238c-1.4,0-2.6-1.2-2.6-2.6V80.9c0-1.4,1.2-2.6,2.6-2.6h238c1.4,0,2.6,1.2,2.6,2.6
	v343.2C374.1,425.5,372.9,426.7,371.5,426.7z"/>
<rect x="159.1" y="114.6" style="fill:#FFFFFF;" width="186.8" height="258.4"/>
<g>
	<circle style="fill:#2B3B4E;" cx="252.5" cy="397.5" r="13.1"/>
	<path style="fill:#2B3B4E;" d="M296.2,102.4h-57.7c-3,0-5.5-2.4-5.5-5.5l0,0c0-3,2.4-5.5,5.5-5.5h57.7c3,0,5.5,2.4,5.5,5.5l0,0
		C301.6,100,299.2,102.4,296.2,102.4z"/>
	<path style="fill:#2B3B4E;" d="M218,102.4h-9.2c-3,0-5.5-2.4-5.5-5.5l0,0c0-3,2.4-5.5,5.5-5.5h9.2c3,0,5.5,2.4,5.5,5.5l0,0
		C223.5,100,221.1,102.4,218,102.4z"/>
</g>
<path style="fill:#54C0EB;" d="M316.1,210.7c0,14.9-5.1,28.5-13.6,39.4c-11.7,14.8-29.7,24.3-50,24.3c-35.2,0-63.7-28.5-63.7-63.7
	c0-35.1,28.5-63.6,63.7-63.6c4.9,0,9.7,0.6,14.3,1.6c25.7,5.9,45.5,27.4,48.8,53.9C316,205.3,316.1,208,316.1,210.7z"/>
<path style="fill:#FF7058;" d="M315.6,202.6l-63.1,8.1l14.3-62C292.5,154.6,312.3,176.1,315.6,202.6z"/>
<path style="fill:#FFD05B;" d="M316.1,210.7c0,14.9-5.1,28.5-13.6,39.4l-50-39.4l63.1-8.1C316,205.3,316.1,208,316.1,210.7z"/>
<rect x="181.4" y="308.8" style="fill:#54C0EB;" width="32.7" height="16.9"/>
<rect x="236.2" y="308.8" style="fill:#FFD05B;" width="32.7" height="16.9"/>
<rect x="290.9" y="308.8" style="fill:#FF7058;" width="32.7" height="16.9"/>
<g>
</g>
<g>
</g>
<g>
</g>
<g>
</g>
<g>
</g>
<g>
</g>
<g>
</g>
<g>
</g>
<g>
</g>
<g>
</g>
<g>
</g>
<g>
</g>
<g>
</g>
<g>
</g>
<g>
</g>
</svg>
